<svg xmlns="http://www.w3.org/2000/svg" xmlns:xlink="http://www.w3.org/1999/xlink" width="64" height="64" viewBox="0 0 64 64" fill="none">
<path     fill="#FFFFFF"  d="M0 64L64 64L64 0L0 0L0 64Z">
</path>
<rect x="0" y="0" width="64" height="64"   fill="#FF5733" >
</rect>
<path d="M18.1111 19C16.976 19 16.0555 18.1044 16.0555 17C16.0555 15.8956 16.976 15 18.1111 15C22.6516 15 26.3333 18.5822 26.3333 23C26.3333 27.4178 22.6516 31 18.1111 31C16.976 31 16.0555 30.1044 16.0555 29C16.0555 27.8955 16.976 27 18.1111 27C20.3813 27 22.2222 25.2089 22.2222 23C22.2222 20.7911 20.3813 19 18.1111 19Z"   fill="#FFFFFF" >
</path>
<path d="M18.1111 19C16.976 19 16.0555 18.1044 16.0555 17C16.0555 15.8956 16.976 15 18.1111 15C22.6516 15 26.3333 18.5822 26.3333 23C26.3333 27.4178 22.6516 31 18.1111 31C16.976 31 16.0555 30.1044 16.0555 29C16.0555 27.8955 16.976 27 18.1111 27C20.3813 27 22.2222 25.2089 22.2222 23C22.2222 20.7911 20.3813 19 18.1111 19Z"   fill="#FFFFFF" >
</path>
<path d="M42.7777 15C47.3182 15 51 18.5822 51 23C51 27.4178 47.3182 31 42.7777 31L18.1111 31C16.976 31 16.0555 30.1044 16.0555 29C16.0555 27.8955 16.976 27 18.1111 27L42.7777 27C45.048 27 46.8888 25.2089 46.8888 23C46.8888 20.7911 45.048 19 42.7777 19L18.1111 19C16.976 19 16.0555 18.1044 16.0555 17C16.0555 15.8956 16.976 15 18.1111 15L42.7777 15Z"   fill="#FFFFFF" >
</path>
<path d="M46.8888 44.9999C48.024 44.9999 48.9444 45.8954 48.9444 46.9999C48.9444 48.1043 48.024 48.9999 46.8888 48.9999C42.3484 48.9999 38.6666 45.4176 38.6666 40.9999C38.6666 36.5821 42.3484 32.9999 46.8888 32.9999C48.024 32.9999 48.9444 33.8954 48.9444 34.9999C48.9444 36.1043 48.024 36.9999 46.8888 36.9999C44.6186 36.9999 42.7777 38.791 42.7777 40.9999C42.7777 43.2088 44.6186 44.9999 46.8888 44.9999Z"   fill="#FFFFFF" >
</path>
<path d="M46.8888 44.9999C48.024 44.9999 48.9444 45.8954 48.9444 46.9999C48.9444 48.1043 48.024 48.9999 46.8888 48.9999C42.3484 48.9999 38.6666 45.4176 38.6666 40.9999C38.6666 36.5821 42.3484 32.9999 46.8888 32.9999C48.024 32.9999 48.9444 33.8954 48.9444 34.9999C48.9444 36.1043 48.024 36.9999 46.8888 36.9999C44.6186 36.9999 42.7777 38.791 42.7777 40.9999C42.7777 43.2088 44.6186 44.9999 46.8888 44.9999Z"   fill="#FFFFFF" >
</path>
<path d="M22.2222 48.9999C17.6817 48.9999 14 45.4176 14 40.9999C14 36.5821 17.6817 32.9999 22.2222 32.9999L46.8889 32.9999C48.024 32.9999 48.9444 33.8954 48.9444 34.9999C48.9444 36.1043 48.024 36.9999 46.8889 36.9999L22.2222 36.9999C19.952 36.9999 18.1111 38.791 18.1111 40.9999C18.1111 43.2088 19.952 44.9999 22.2222 44.9999L46.8889 44.9999C48.024 44.9999 48.9444 45.8954 48.9444 46.9999C48.9444 48.1043 48.024 48.9999 46.8889 48.9999L22.2222 48.9999Z"   fill="#FFFFFF" >
</path>
</svg>
